# xmcd
#
# Track frame offsets: 
#        150
#        4013
#        6119
#        9184
#        13219
#        21279
#        25642
#        30505
#        36666
#        40179
#        49820
#        68394
#        78111
#        87182
#        96202
#        104251
#        112738
#        123635
#        133142
#        154276
#        158905
#        167349
#        177014
#        186013
#        189581
#        205243
#        216342
#        228102
#        235479
#        254529
#        263058
#
# Disc length: 3721 seconds
#
# Revision: 0
# Processed by: cddbd v1.5.2PL0 Copyright (c) Steve Scherf et al.
# Submitted via: ExactAudioCopy v0.99pb4
#
DISCID=880e871f
DTITLE=Fou Ts'ong - CD 2 Schumann
DYEAR=1998
DGENRE=Classical
TTITLE0=Papillons op. 2 - 1.
TTITLE1=2.
TTITLE2=3.
TTITLE3=4.
TTITLE4=5.
TTITLE5=6.
TTITLE6=7.
TTITLE7=8.
TTITLE8=9.
TTITLE9=10.
TTITLE10=11.
TTITLE11=12.
TTITLE12=Davidsbündlertänze op. 6 - Lebhaft
TTITLE13=Innig
TTITLE14=Mit Humor (etwas hahnebüchen)
TTITLE15=Ungeduldig
TTITLE16=Einfach
TTITLE17=Sehr rasch (und in sich hinein)
TTITLE18=Nicht schnell (mit äußerst starker Empfindung)
TTITLE19=Frisch
TTITLE20=Lebhaft (Hierauf schloss Florestan ...)
TTITLE21=Balladenmäßig - Sehr rasch
TTITLE22=Einfach
TTITLE23=Mit Humor
TTITLE24=Wild und lustig
TTITLE25=Zart und singend
TTITLE26=Frisch
TTITLE27=Mit gutem Humor
TTITLE28=Wie aus der Ferne
TTITLE29=Nicht schnell (Ganz zum Überfluß ...)
TTITLE30=Vogel als Prophet (Waldszenen) op. 82,7
EXTD=
EXTT0=
EXTT1=
EXTT2=
EXTT3=
EXTT4=
EXTT5=
EXTT6=
EXTT7=
EXTT8=
EXTT9=
EXTT10=
EXTT11=
EXTT12=
EXTT13=
EXTT14=
EXTT15=
EXTT16=
EXTT17=
EXTT18=
EXTT19=
EXTT20=
EXTT21=
EXTT22=
EXTT23=
EXTT24=
EXTT25=
EXTT26=
EXTT27=
EXTT28=
EXTT29=
EXTT30=
PLAYORDER=
